<?xml version="1.0" encoding="iso-8859-1"?>
<!-- Generator: Adobe Illustrator 21.0.0, SVG Export Plug-In . SVG Version: 6.00 Build 0)  -->
<svg xmlns="http://www.w3.org/2000/svg" xmlns:xlink="http://www.w3.org/1999/xlink" version="1.1" id="Capa_1" x="0px" y="0px" viewBox="0 0 512 512" style="enable-background:new 0 0 512 512;" xml:space="preserve" width="512" height="512">
<g>
	<g>
		<circle style="fill:#0053BF;" cx="256" cy="256" r="256"/>
	</g>
	<path style="fill:#1B3B6B;" d="M510.522,283.539L332.34,105.356l-50.729,170.998l-83.858-83.858L92.993,386.837l121.854,121.854   C228.247,510.857,241.989,512,256,512C388.08,512,496.784,411.971,510.522,283.539z"/>
	<g>
		<path style="fill:#FFFFFF;" d="M428.007,256.554c0-10.286-6.704-19.003-15.98-22.03c9.276-3.028,15.98-11.743,15.98-22.03    c0-12.799-10.375-23.174-23.174-23.174h-63.035v-63.342c0-15.04-12.192-27.232-27.232-27.232    c-12.272,0-23.029,8.209-26.267,20.046l-6.988,25.543c-11.322,41.385-48.927,70.084-91.833,70.084h-16.897l10.986,153.429h221.266    c12.799,0,23.174-10.375,23.174-23.174c0-10.287-6.704-19.003-15.98-22.03c9.276-3.028,15.98-11.744,15.98-22.03    s-6.704-19.002-15.98-22.03C421.303,275.556,428.007,266.841,428.007,256.554z"/>
	</g>
	<path style="fill:#E9EDF5;" d="M183.567,367.848h221.266c12.799,0,23.174-10.375,23.174-23.174c0-10.287-6.704-19.002-15.98-22.029   c9.276-3.028,15.98-11.744,15.98-22.03c0-3.962-1.003-7.687-2.756-10.947H177.969L183.567,367.848z"/>
	<g>
		<rect x="92.993" y="192.496" style="fill:#65B1FC;" width="104.76" height="194.341"/>
	</g>
	<g>
		<rect x="92.993" y="289.667" style="fill:#4A98F7;" width="104.76" height="97.17"/>
	</g>
</g>















</svg>
