<?xml version="1.0" encoding="iso-8859-1"?>
<!-- Generator: Adobe Illustrator 16.0.0, SVG Export Plug-In . SVG Version: 6.00 Build 0)  -->
<!DOCTYPE svg PUBLIC "-//W3C//DTD SVG 1.1//EN" "http://www.w3.org/Graphics/SVG/1.1/DTD/svg11.dtd">
<svg version="1.1" id="Capa_1" xmlns="http://www.w3.org/2000/svg" xmlns:xlink="http://www.w3.org/1999/xlink" x="0px" y="0px"
	 width="731.554px" height="731.554px" viewBox="0 0 731.554 731.554" style="enable-background:new 0 0 731.554 731.554;"
	 xml:space="preserve">
<g>
	<g>
		<g>
			<path d="M263.402,731.554c-0.037,0-1.108,0-1.182,0c-57.731-0.517-100.024-53.742-130.459-100.098
				C53.123,511.782,36.908,361.931,93.199,275.167c37.232-57.251,96.958-92.821,155.982-92.821c30.546,0,55.036,8.717,76.606,16.4
				c18.394,6.538,34.277,12.226,51.674,12.226c15.661,0,29.364-5.208,45.247-11.229c21.682-8.2,46.245-17.508,82.59-17.508
				c51.97,0,105.417,27.924,142.907,74.722c3.398,4.248,4.765,9.825,3.693,15.144c-1.07,5.319-4.432,9.973-9.233,12.595
				c-44.915,24.637-69.625,69.515-66.079,120.006c3.619,51.563,35.495,94.816,83.218,112.878c4.765,1.811,8.568,5.467,10.526,10.194
				c1.958,4.729,1.884,10.01-0.222,14.627c-16.067,35.681-24.119,52.117-44.841,83.735
				c-33.944,51.711-76.273,104.715-132.564,105.306l0,0c-24.821,0-40.557-7.202-55.774-14.184
				c-15.771-7.203-30.657-14.036-57.99-14.036c-28.625,0.185-43.991,7.019-60.28,14.258
				C303.22,724.426,287.189,731.554,263.402,731.554z M249.182,219.246c-46.614,0-94.52,29.106-124.993,76.015
				c-40.741,62.755-41.11,194.803,38.451,315.918c25.375,38.672,59.689,83.069,99.95,83.439l0.812,18.468v-18.468
				c15.957,0,26.668-4.766,40.261-10.823c17.249-7.683,38.709-17.249,74.316-17.471c36.382,0,57.473,9.641,74.39,17.397
				c13.187,6.058,23.603,10.822,39.411,10.822c39.78-0.406,75.72-47.574,102.684-88.61c15.883-24.193,23.565-38.451,34.388-61.758
				c-51.305-26.558-84.843-77.382-89.017-136.812c-4.063-57.584,20.241-109.443,65.747-142.686
				c-28.922-28.737-65.23-45.432-100.246-45.432c-29.586,0-49.901,7.683-69.515,15.107c-17.692,6.612-35.938,13.556-58.359,13.556
				c-23.787,0-44.25-7.313-64.084-14.368C292.767,226.189,273.338,219.246,249.182,219.246z"/>
			<g>
				<path d="M359.142,198.007L359.142,198.007c-0.185,0-3.14-0.037-3.324-0.037c-8.717-0.258-16.067-6.575-17.619-15.107
					c-7.129-38.783,6.833-84.03,37.342-121.041C403.65,27.656,449.969,2.872,490.82,0.064c9.751-0.812,18.099,6.168,19.539,15.735
					c6.021,40.63-7.202,85.323-36.271,122.666C445.831,174.626,400.732,198.007,359.142,198.007z M474.753,40.178
					c-25.93,7.018-53.559,24.267-70.733,45.136c-7.683,9.271-30.029,39.448-30.769,74.538c26.299-4.543,53.78-21.09,71.694-44.065
					C454.105,103.93,473.275,75.304,474.753,40.178z"/>
			</g>
		</g>
	</g>
</g>
<g>
</g>
<g>
</g>
<g>
</g>
<g>
</g>
<g>
</g>
<g>
</g>
<g>
</g>
<g>
</g>
<g>
</g>
<g>
</g>
<g>
</g>
<g>
</g>
<g>
</g>
<g>
</g>
<g>
</g>
</svg>
