<?xml version="1.0" encoding="iso-8859-1"?>
<!-- Generator: Adobe Illustrator 19.0.0, SVG Export Plug-In . SVG Version: 6.00 Build 0)  -->
<svg version="1.1" id="Capa_1" xmlns="http://www.w3.org/2000/svg" xmlns:xlink="http://www.w3.org/1999/xlink" x="0px" y="0px"
	 viewBox="0 0 472 472" style="enable-background:new 0 0 472 472;" xml:space="preserve">
<path style="fill:#EA9D2D;" d="M247.832,0h-72h-40v240l29.336,88h82.664V0z"/>
<path style="fill:#FBB540;" d="M279.832,64h48v40.504h-48V64z"/>
<path style="fill:#D9D9D9;" d="M175.832,0h32.504v32.504h-32.504V0z"/>
<path style="fill:#FBB540;" d="M191.832,64v264H398.8l16.528-56.84V64H191.832z"/>
<path style="fill:#D68F29;" d="M167.832,64h24v256h-24V64z"/>
<path style="fill:#F0F0F0;" d="M279.832,64h48v40.504h-48V64z"/>
<g>
	<path style="fill:#787D82;" d="M183.832,472c-17.673,0-32-14.327-32-32s14.327-32,32-32c17.673,0,32,14.327,32,32
		S201.505,472,183.832,472z M183.832,424c-8.837,0-16,7.163-16,16s7.163,16,16,16c8.837,0,16-7.163,16-16S192.669,424,183.832,424z"
		/>
	<path style="fill:#787D82;" d="M359.832,472c-17.673,0-32-14.327-32-32s14.327-32,32-32s32,14.327,32,32S377.505,472,359.832,472z
		 M359.832,424c-8.837,0-16,7.163-16,16s7.163,16,16,16s16-7.163,16-16S368.669,424,359.832,424z"/>
</g>
<path id="SVGCleanerId_0" style="fill:#3B869E;" d="M231.136,336h168.696c0.977-0.012,1.943-0.207,2.848-0.576
	c0.275-0.126,0.542-0.267,0.8-0.424c0.882-0.441,1.666-1.056,2.304-1.808c0.398-0.458,0.739-0.963,1.016-1.504
	c0.181-0.316,0.339-0.645,0.472-0.984c0.064-0.176,0.176-0.312,0.232-0.488l55.328-192c0.059-0.368,0.092-0.739,0.096-1.112
	c0.108-0.361,0.188-0.73,0.24-1.104c0-0.168-0.088-0.304-0.096-0.472c-0.054-0.543-0.164-1.079-0.328-1.6
	c-0.175-0.988-0.627-1.907-1.304-2.648c-0.283-0.418-0.607-0.807-0.968-1.16c-0.377-0.307-0.785-0.575-1.216-0.8
	c-0.456-0.317-0.944-0.586-1.456-0.8c-0.137-0.08-0.279-0.152-0.424-0.216c-0.373-0.064-0.75-0.096-1.128-0.096
	c-0.354-0.098-0.715-0.167-1.08-0.208h-348.2L79.312,37.656C78.282,34.295,75.179,32,71.664,32H16.832c-4.418,0-8,3.582-8,8
	s3.582,8,8,8h48.912l85.6,279.512L128.032,380.8c-1.767,4.049,0.083,8.765,4.132,10.532c1.008,0.44,2.096,0.667,3.196,0.668h264.472
	c4.418,0,8-3.582,8-8s-3.582-8-8-8H147.56l17.504-40L231.136,336z M151.056,272h55.648l13.832,48h-54.784L151.056,272z M131.464,208
	h56.8l13.832,48h-55.664c-0.104,0-0.192,0.056-0.288,0.056L131.464,208z M444.536,144l-13.84,48h-55.344l13.832-48H444.536z
	 M412.256,256h-55.352l13.832-48h55.352L412.256,256z M393.808,320h-55.376l13.832-48h55.352L393.808,320z M287.832,320v-48h47.816
	l-13.84,48H287.832z M237.184,320l-13.832-48h48.48v48H237.184z M287.832,256v-48h66.256l-13.832,48H287.832z M358.696,192h-70.864
	v-48h84.704L358.696,192z M271.832,192h-71.536l-13.864-48h85.4V192z M271.832,208v48h-53.088l-13.832-48H271.832z M169.808,144
	l13.84,48H126.56l-14.696-48H169.808z"/>
<g>
	<path id="SVGCleanerId_0_1_" style="fill:#3B869E;" d="M231.136,336h168.696c0.977-0.012,1.943-0.207,2.848-0.576
		c0.275-0.126,0.542-0.267,0.8-0.424c0.882-0.441,1.666-1.056,2.304-1.808c0.398-0.458,0.739-0.963,1.016-1.504
		c0.181-0.316,0.339-0.645,0.472-0.984c0.064-0.176,0.176-0.312,0.232-0.488l55.328-192c0.059-0.368,0.092-0.739,0.096-1.112
		c0.108-0.361,0.188-0.73,0.24-1.104c0-0.168-0.088-0.304-0.096-0.472c-0.054-0.543-0.164-1.079-0.328-1.6
		c-0.175-0.988-0.627-1.907-1.304-2.648c-0.283-0.418-0.607-0.807-0.968-1.16c-0.377-0.307-0.785-0.575-1.216-0.8
		c-0.456-0.317-0.944-0.586-1.456-0.8c-0.137-0.08-0.279-0.152-0.424-0.216c-0.373-0.064-0.75-0.096-1.128-0.096
		c-0.354-0.098-0.715-0.167-1.08-0.208h-348.2L79.312,37.656C78.282,34.295,75.179,32,71.664,32H16.832c-4.418,0-8,3.582-8,8
		s3.582,8,8,8h48.912l85.6,279.512L128.032,380.8c-1.767,4.049,0.083,8.765,4.132,10.532c1.008,0.44,2.096,0.667,3.196,0.668
		h264.472c4.418,0,8-3.582,8-8s-3.582-8-8-8H147.56l17.504-40L231.136,336z M151.056,272h55.648l13.832,48h-54.784L151.056,272z
		 M131.464,208h56.8l13.832,48h-55.664c-0.104,0-0.192,0.056-0.288,0.056L131.464,208z M444.536,144l-13.84,48h-55.344l13.832-48
		H444.536z M412.256,256h-55.352l13.832-48h55.352L412.256,256z M393.808,320h-55.376l13.832-48h55.352L393.808,320z M287.832,320
		v-48h47.816l-13.84,48H287.832z M237.184,320l-13.832-48h48.48v48H237.184z M287.832,256v-48h66.256l-13.832,48H287.832z
		 M358.696,192h-70.864v-48h84.704L358.696,192z M271.832,192h-71.536l-13.864-48h85.4V192z M271.832,208v48h-53.088l-13.832-48
		H271.832z M169.808,144l13.84,48H126.56l-14.696-48H169.808z"/>
</g>
<g>
</g>
<g>
</g>
<g>
</g>
<g>
</g>
<g>
</g>
<g>
</g>
<g>
</g>
<g>
</g>
<g>
</g>
<g>
</g>
<g>
</g>
<g>
</g>
<g>
</g>
<g>
</g>
<g>
</g>
</svg>
