<svg id="Layer_1" enable-background="new 0 0 512 512" height="512" viewBox="0 0 512 512" width="512" xmlns="http://www.w3.org/2000/svg"><g><path d="m487.934 198.8h-38.456l5.773-5.773c4.545-4.546 7.049-10.589 7.049-17.018s-2.504-12.473-7.049-17.018l-64.017-64.017c-5.704-5.703-13.831-8.163-21.737-6.582l-39.049 7.81c-2.174.435-4.229 1.167-6.141 2.131l-27.673-27.673v-46.593c0-13.271-10.797-24.067-24.068-24.067h-33.133c-13.27 0-24.067 10.796-24.067 24.067v174.733h-122.504c-4.143 0-7.5 3.358-7.5 7.5s3.357 7.5 7.5 7.5h112.026c-2.813 5.586-4.733 11.691-5.581 18.133h-184.307v-9.066c0-4.999 4.067-9.067 9.066-9.067h38.797c4.143 0 7.5-3.358 7.5-7.5s-3.357-7.5-7.5-7.5h-38.797c-13.27 0-24.066 10.796-24.066 24.067v33.133c0 10.815 7.171 19.985 17.008 23.009l13.947 195.253c1.511 21.161 19.314 37.738 40.529 37.738h35.325c4.143 0 7.5-3.358 7.5-7.5s-3.357-7.5-7.5-7.5h-35.325c-13.384 0-24.614-10.457-25.568-23.807l-13.795-193.126h183.668c10.34 10.234 24.549 16.566 40.212 16.566s29.871-6.332 40.211-16.566h183.668l-13.795 193.126c-.955 13.35-12.186 23.807-25.569 23.807h-303.706c-4.143 0-7.5 3.358-7.5 7.5s3.357 7.5 7.5 7.5h303.706c21.216 0 39.019-16.577 40.529-37.738l13.947-195.253c9.837-3.024 17.008-12.194 17.008-23.009v-33.133c0-13.271-10.796-24.067-24.066-24.067zm0 15c4.999 0 9.066 4.067 9.066 9.067v9.066h-80.655l18.133-18.133zm-115.494-110.698c.594-.119 1.191-.177 1.785-.177 2.379 0 4.683.937 6.402 2.657l64.017 64.017c1.713 1.712 2.656 3.989 2.656 6.412 0 2.422-.943 4.699-2.656 6.411l-46.857 46.857c-1.709 1.71-3.983 2.653-6.4 2.655h-.02c-2.418-.003-4.692-.945-6.401-2.655l-64.018-64.018c-2.148-2.148-3.075-5.21-2.479-8.189l7.228-36.136 13.52 13.52c1.465 1.464 3.385 2.197 5.304 2.197s3.839-.732 5.304-2.197c2.929-2.929 2.929-7.678 0-10.607l-13.52-13.52zm-59.747 128.831c-.848-6.442-2.768-12.547-5.581-18.133h41.162l18.133 18.133zm-82.327-67.833h51.268v24.222c-7.717-3.886-16.421-6.089-25.634-6.089s-17.917 2.203-25.634 6.089zm83.334-55.16c-.965 1.913-1.697 3.968-2.132 6.142l-7.81 39.048c-1.581 7.909.88 16.035 6.582 21.737l22.932 22.933h-36.639v-106.927zm-74.266-93.94h33.133c5 0 9.067 4.067 9.067 9.067v125.033h-51.268v-125.033c0-5 4.068-9.067 9.068-9.067zm-224.434 231.933h184.307c.848 6.442 2.768 12.547 5.581 18.134h-180.822c-4.999 0-9.066-4.067-9.066-9.067zm198.8-7.5c0-23.269 18.931-42.2 42.2-42.2s42.2 18.931 42.2 42.2-18.931 42.2-42.2 42.2-42.2-18.931-42.2-42.2zm274.134 25.634h-180.823c2.813-5.586 4.733-11.692 5.582-18.134h184.307v9.067c0 5-4.067 9.067-9.066 9.067z"/><path d="m256 215.367c-13.27 0-24.066 10.796-24.066 24.066s10.796 24.067 24.066 24.067c13.271 0 24.066-10.796 24.066-24.067 0-13.27-10.795-24.066-24.066-24.066zm0 33.133c-4.999 0-9.066-4.067-9.066-9.067 0-4.999 4.067-9.066 9.066-9.066s9.066 4.067 9.066 9.066c0 5-4.067 9.067-9.066 9.067z"/><path d="m142.38 454.507c4.347-4.736 6.59-10.881 6.314-17.304-.002-.036-.003-.071-.005-.107l-5.678-99.35c-.598-13.213-11.823-23.509-25.071-22.958-6.423.275-12.354 3.035-16.701 7.771s-6.589 10.881-6.314 17.303c.002.036.003.071.006.107l5.677 99.352c.582 12.89 11.126 22.979 24.029 22.979.344 0 .693-.007 1.041-.022 6.424-.275 12.355-3.035 16.702-7.771zm-11.051-10.143c-1.638 1.784-3.872 2.824-6.29 2.927-5.049.223-9.233-3.671-9.447-8.67-.002-.036-.003-.071-.006-.107l-5.676-99.338c-.091-2.403.753-4.701 2.38-6.474 1.638-1.784 3.873-2.824 6.283-2.927 4.974-.212 9.242 3.682 9.455 8.67.002.036.003.071.005.107l5.677 99.34c.091 2.403-.754 4.7-2.381 6.472z"/><path d="m212.211 462.3.349-.003c6.429-.091 12.436-2.681 16.916-7.291s6.896-10.689 6.805-17.153l-1.894-99.363c-.187-13.135-10.98-23.722-24.146-23.722-.086 0-.175 0-.261.001-6.429.091-12.437 2.681-16.917 7.291-4.481 4.61-6.896 10.689-6.804 17.152l1.893 99.365c.188 13.081 10.98 23.723 24.059 23.723zm-8.39-129.786c1.688-1.736 3.95-2.712 6.346-2.746h.099c4.97 0 9.053 3.988 9.123 8.972l1.893 99.364c.034 2.421-.876 4.711-2.563 6.448-1.688 1.736-3.951 2.712-6.358 2.746l-.149.001c-4.926 0-8.99-4.009-9.061-8.973l-1.893-99.365c-.035-2.421.875-4.711 2.563-6.447z"/><path d="m299.789 462.3c13.079 0 23.871-10.642 24.059-23.688l1.893-99.435c.093-6.428-2.323-12.507-6.804-17.118-4.48-4.61-10.488-7.199-16.939-7.291l-.326-.002c-13.08 0-23.873 10.642-24.059 23.687l-1.894 99.436c-.092 6.428 2.324 12.507 6.805 17.117 4.48 4.61 10.487 7.199 16.935 7.291zm-9.071-24.16 1.893-99.436c.07-4.928 4.135-8.936 9.061-8.936l.135.001c2.422.035 4.685 1.01 6.372 2.747 1.688 1.737 2.599 4.026 2.563 6.413l-1.893 99.435c-.07 4.928-4.135 8.938-9.061 8.938l-.136-.001c-2.421-.035-4.684-1.01-6.372-2.747-1.686-1.739-2.596-4.029-2.562-6.414z"/><path d="m386.321 462.278c.348.015.695.022 1.041.022 12.903 0 23.447-10.089 24.029-22.979l5.677-99.352c.003-.036.004-.071.006-.107.275-6.422-1.967-12.567-6.313-17.303-4.347-4.736-10.278-7.496-16.714-7.772-13.244-.526-24.461 9.751-25.059 22.959l-5.678 99.35c-.002.036-.003.071-.005.107-.275 6.422 1.968 12.568 6.314 17.304 4.348 4.737 10.279 7.496 16.702 7.771zm-2.354-123.726c.002-.036.003-.071.005-.107.213-4.986 4.459-8.877 9.445-8.67 2.42.103 4.655 1.143 6.293 2.927 1.627 1.773 2.471 4.071 2.38 6.474l-5.676 99.338c-.003.036-.004.071-.006.107-.214 4.999-4.443 8.894-9.446 8.67-2.419-.104-4.653-1.143-6.291-2.927-1.627-1.772-2.472-4.069-2.381-6.472z"/><path d="m350.929 169.598 2.929 2.929c1.465 1.464 3.385 2.197 5.304 2.197s3.839-.732 5.304-2.197c2.929-2.929 2.929-7.678 0-10.606l-2.929-2.929c-2.93-2.929-7.678-2.929-10.607 0-2.93 2.928-2.93 7.677-.001 10.606z"/><path d="m409.501 181.313c1.465 1.464 3.385 2.197 5.304 2.197s3.839-.732 5.304-2.197c2.929-2.929 2.929-7.678 0-10.606l-2.929-2.929c-2.93-2.929-7.678-2.929-10.607 0s-2.929 7.678 0 10.607z"/><path d="m384.022 200.909c.713 3.565 3.845 6.031 7.347 6.031.487 0 .982-.048 1.479-.147 4.061-.813 6.696-4.764 5.884-8.825l-11.715-58.572c-.811-4.062-4.76-6.693-8.825-5.884-4.061.813-6.696 4.764-5.884 8.825z"/></g></svg>