<svg id="Capa_1" enable-background="new 0 0 512 512" height="512" viewBox="0 0 512 512" width="512" xmlns="http://www.w3.org/2000/svg"><g><path d="m475.827 155.698c-19.786-33.567-47.113-62.234-79.558-83.652l7.655-13.259c4.138-7.166 1.69-16.328-5.468-20.478-43.238-25.062-92.499-38.309-142.456-38.309s-99.217 13.247-142.456 38.31c-7.159 4.149-9.605 13.312-5.468 20.478l7.655 13.259c-32.445 21.418-59.772 50.085-79.558 83.652-23.01 39.036-35.173 83.748-35.173 129.301v90c0 8.284 6.716 15 15 15h46.509c6.968 34.192 37.272 60 73.491 60 8.284 0 15-6.716 15-15v-200c0-8.284-6.716-15-15-15-36.219 0-66.522 25.808-73.491 60h-31.446c1.641-73.155 39.182-141.277 99.689-181.936l7.378 12.778c1.991 3.449 5.272 5.965 9.121 6.992 1.273.34 2.574.508 3.869.508 2.62 0 5.218-.687 7.523-2.023 29.703-17.218 63.369-26.319 97.357-26.319s67.654 9.101 97.357 26.32c3.446 1.998 7.547 2.542 11.392 1.515 3.849-1.027 7.13-3.543 9.121-6.992l7.378-12.779c60.508 40.658 98.049 108.781 99.689 181.936h-31.446c-6.968-34.192-37.271-60-73.491-60-8.284 0-15 6.716-15 15v200c0 8.284 6.716 15 15 15 5.136 0 10.152-.521 15-1.509v8.509c0 13.785-11.215 25-25 25h-70c-9.7 0-18.12-5.556-22.263-13.649 16.018-6.897 27.263-22.834 27.263-41.351 0-24.813-20.187-45-45-45s-45 20.187-45 45c0 20.131 13.288 37.215 31.553 42.946 5.839 24.099 27.579 42.054 53.447 42.054h70c30.327 0 55-24.673 55-55v-22.041c14.386-10.824 24.768-26.694 28.491-44.959h46.509c8.284 0 15-6.716 15-15v-90c0-45.553-12.162-90.265-35.173-129.302zm-354.827 96.872v164.86c-17.461-6.191-30-22.874-30-42.43v-80c0-19.556 12.539-36.239 30-42.43zm-60 107.43h-30v-50h30zm294.152-276.738c-30.881-15.255-64.866-23.262-99.152-23.262-34.285 0-68.271 8.007-99.153 23.263l-15.082-26.124c35.364-17.794 74.554-27.139 114.235-27.139 39.682 0 78.871 9.345 114.234 27.139zm-99.152 328.738c8.271 0 15 6.729 15 15s-6.729 15-15 15-15-6.729-15-15 6.729-15 15-15zm135 5.43v-164.86c17.461 6.191 30 22.874 30 42.43v80c0 19.556-12.539 36.239-30 42.43zm90-57.43h-30v-50h30z"/></g></svg>