<svg id="Capa_1" enable-background="new 0 0 512 512" height="512" viewBox="0 0 512 512" width="512" xmlns="http://www.w3.org/2000/svg"><g><path d="m392.359 222.265c-14.251 14.252-14.251 37.442 0 51.694 7.126 7.126 16.486 10.688 25.847 10.688 6.974 0 13.945-1.98 19.994-5.934l19.531 19.531c1.465 1.464 3.385 2.196 5.304 2.196s3.839-.732 5.304-2.196c2.929-2.93 2.929-7.678 0-10.607l-19.531-19.531c9.262-14.17 7.679-33.406-4.754-45.84-14.252-14.253-37.443-14.252-51.695-.001zm41.087 41.087c-8.401 8.404-22.076 8.405-30.479 0-8.403-8.403-8.403-22.076 0-30.48s22.077-8.404 30.479 0c8.404 8.404 8.404 22.077 0 30.48z"/><path d="m284.5 291.39c0-4.143-3.357-7.5-7.5-7.5h-214.983c-4.143 0-7.5 3.357-7.5 7.5s3.357 7.5 7.5 7.5h214.983c4.143 0 7.5-3.358 7.5-7.5z"/><path d="m474.11 166.262h-11.857c-4.143 0-7.5 3.358-7.5 7.5s3.357 7.5 7.5 7.5h11.857c12.621 0 22.89 10.269 22.89 22.89v103.695c0 12.621-10.269 22.89-22.89 22.89h-118.922v-149.475h77.077c4.143 0 7.5-3.358 7.5-7.5s-3.357-7.5-7.5-7.5h-394.374c-20.893 0-37.891 16.998-37.891 37.891v103.695c0 20.893 16.998 37.89 37.891 37.89h30.637c4.143 0 7.5-3.357 7.5-7.5s-3.357-7.5-7.5-7.5h-30.637c-12.622 0-22.891-10.269-22.891-22.89v-103.695c0-12.622 10.269-22.89 22.891-22.89h302.298v149.475h-241.675c-4.143 0-7.5 3.357-7.5 7.5s3.357 7.5 7.5 7.5h375.596c20.893 0 37.89-16.997 37.89-37.89v-103.695c0-20.893-16.997-37.891-37.89-37.891z"/></g></svg>